<svg width="55" height="59" viewBox="0 0 55 59" fill="none" xmlns="http://www.w3.org/2000/svg">
<path d="M1 34.3274C1 20.2388 13.1551 13.9364 23.0409 1.83745C23.9398 0.737202 25.0572 0.704616 25.9158 1.83745C33.7356 12.1652 48.1484 18.9929 48.1484 34.2315C48.1484 47.3061 37.7432 58 24.67 58C11.5969 58 1 47.402 1 34.3274Z" fill="#FF2A23" stroke="#FF2A23" stroke-width="2" stroke-miterlimit="10"/>
<path d="M40.6019 42.1019H40.1019V42.6019V54.8981C40.1019 55.7822 39.3841 56.5 38.5 56.5C37.6159 56.5 36.8981 55.7822 36.8981 54.8981V42.6019V42.1019H36.3981H24.1019C23.2178 42.1019 22.5 41.3841 22.5 40.5C22.5 39.6159 23.2178 38.8981 24.1019 38.8981H36.3981H36.8981V38.3981V26.1019C36.8981 25.2178 37.6159 24.5 38.5 24.5C39.3841 24.5 40.1019 25.2178 40.1019 26.1019V38.3981V38.8981H40.6019H52.8981C53.7822 38.8981 54.5 39.6159 54.5 40.5C54.5 41.3841 53.7822 42.1019 52.8981 42.1019H40.6019Z" fill="white" stroke="#FF2A23"/>
</svg>
