<svg width="48" height="56" viewBox="0 0 48 56" fill="none" xmlns="http://www.w3.org/2000/svg">
<path d="M23.9885 46.8931C23.8182 46.8931 23.6604 46.8047 23.572 46.6533C22.5434 44.8737 20.9027 42.3811 18.997 39.4972C13.6899 31.4577 7.08911 21.4493 7.08911 16.8742C7.09542 7.57256 14.6743 0 23.9885 0C33.3028 0 40.8817 7.57256 40.8817 16.8742C40.8817 21.4493 34.2809 31.4577 28.9801 39.4972C27.0807 42.3811 25.4336 44.8737 24.405 46.6533C24.323 46.7984 24.1652 46.8931 23.9948 46.8931H23.9885ZM23.9885 0.95288C15.1981 0.95288 8.0483 8.09633 8.0483 16.8742C8.0483 21.159 14.8384 31.4577 19.7984 38.9734C21.4707 41.5166 22.9473 43.7505 23.9885 45.4795C25.0298 43.7505 26.5064 41.5166 28.1787 38.9734C33.1387 31.4577 39.9288 21.1653 39.9288 16.8742C39.9288 8.09633 32.779 0.95288 23.9948 0.95288H23.9885Z" fill="#FF2A23"/>
<path d="M23.9885 26.2765C18.2776 26.2765 13.6331 21.6383 13.6331 15.9337C13.6331 10.229 18.2776 5.59082 23.9885 5.59082C29.6995 5.59082 34.3377 10.229 34.3377 15.9337C34.3377 21.6383 29.6932 26.2765 23.9885 26.2765ZM23.9885 6.53739C18.8076 6.53739 14.5922 10.7528 14.5922 15.9274C14.5922 21.1019 18.8076 25.3173 23.9885 25.3173C29.1694 25.3173 33.3848 21.1019 33.3848 15.9274C33.3848 10.7528 29.1694 6.53739 23.9885 6.53739Z" fill="#FF2A23"/>
<path d="M47.4948 55.8415H0.481867C0.330416 55.8415 0.191586 55.7721 0.103239 55.6522C0.0148928 55.5323 -0.0166596 55.3745 0.0275137 55.2294L6.64088 32.6884C6.69768 32.4865 6.88699 32.3477 7.10155 32.3477H15.2294C15.3935 32.3477 15.5449 32.4297 15.6333 32.5685C17.0342 34.7709 18.4478 36.9101 19.8108 38.98C21.4831 41.5168 22.9597 43.7507 24.001 45.4797C25.0422 43.7507 26.5125 41.5168 28.1911 38.98C29.5542 36.9101 30.9677 34.7709 32.3686 32.5685C32.457 32.4297 32.6084 32.3477 32.7725 32.3477H40.9004C41.115 32.3477 41.298 32.4865 41.3611 32.6884L47.9618 55.1852C47.9871 55.242 47.9997 55.2988 47.9997 55.3682C47.9997 55.6333 47.7851 55.8478 47.5201 55.8478L47.4948 55.8415ZM1.11922 54.8886H46.8575L40.5218 33.3005H33.0123C31.6556 35.4335 30.2862 37.5033 28.9673 39.5037C27.0679 42.3876 25.4208 44.8739 24.3985 46.6535C24.3165 46.7986 24.1587 46.8933 23.9883 46.8933C23.818 46.8933 23.6602 46.8049 23.5719 46.6535C22.5433 44.8739 20.9025 42.3876 19.0031 39.5037C17.6842 37.5033 16.3211 35.4335 14.9581 33.3005H7.44862L1.11922 54.8886Z" fill="#FF2A23"/>
<path d="M42.9326 40.8733H27.8127C27.5477 40.8733 27.3331 40.6587 27.3331 40.3937C27.3331 40.1286 27.5477 39.9141 27.8127 39.9141H42.9326C43.1976 39.9141 43.4122 40.1286 43.4122 40.3937C43.4122 40.6587 43.1976 40.8733 42.9326 40.8733Z" fill="#FF2A23"/>
<path d="M18.6878 38.6327C18.6247 38.6327 18.5553 38.6201 18.4858 38.5886L6.89351 33.2625C6.65372 33.1552 6.55275 32.8713 6.66003 32.6315C6.77362 32.3917 7.05128 32.2844 7.29107 32.398L18.8834 37.7303C19.1232 37.8376 19.2305 38.1216 19.1169 38.3614C19.0349 38.5381 18.8645 38.639 18.6815 38.639L18.6878 38.6327Z" fill="#FF2A23"/>
<path d="M29.5354 38.2603C29.3524 38.2603 29.1757 38.153 29.1 37.9763C28.9927 37.7365 29.1 37.4526 29.3461 37.3453L40.6923 32.3852C40.9321 32.278 41.2161 32.3852 41.3233 32.6314C41.4306 32.8712 41.3233 33.1551 41.0772 33.2624L29.731 38.2224C29.6679 38.2477 29.6048 38.2603 29.5417 38.2603H29.5354Z" fill="#FF2A23"/>
<path d="M0.482023 55.841C0.324262 55.841 0.172811 55.7653 0.0781536 55.6201C-0.0669871 55.3993 -0.00388246 55.1027 0.216984 54.9575L20.909 41.5352C21.1299 41.39 21.4265 41.4531 21.5716 41.674C21.7167 41.8949 21.6536 42.1915 21.4328 42.3366L0.740752 55.7653C0.658716 55.8158 0.57037 55.841 0.482023 55.841Z" fill="#FF2A23"/>
<path d="M47.4951 55.8414C47.4067 55.8414 47.3184 55.8162 47.2427 55.7657L26.3235 42.6841C26.1026 42.5453 26.0332 42.2487 26.172 42.0278C26.3108 41.8069 26.6074 41.7375 26.8283 41.8764L47.7475 54.958C47.9684 55.0968 48.0378 55.3934 47.8989 55.6142C47.8106 55.7594 47.6528 55.8414 47.4951 55.8414Z" fill="#FF2A23"/>
<path d="M23.9885 55.8417C23.7298 55.8417 23.5152 55.6335 23.5089 55.3748L23.2376 45.9658C23.2313 45.7008 23.4395 45.4799 23.7045 45.4736C23.9696 45.4736 24.1904 45.6756 24.1968 45.9343L24.4681 55.3432C24.4744 55.6082 24.2662 55.8291 24.0074 55.8354H23.9948L23.9885 55.8417Z" fill="#FF2A23"/>
<path d="M25.6672 22.2822H22.31C22.045 22.2822 21.8304 22.0676 21.8304 21.8026V17.8081H17.8296C17.5645 17.8081 17.35 17.5935 17.35 17.3285V13.9713C17.35 13.7063 17.5645 13.4917 17.8296 13.4917H21.8304V9.49717C21.8304 9.23213 22.045 9.01758 22.31 9.01758H25.6672C25.9322 9.01758 26.1468 9.23213 26.1468 9.49717V13.4917H30.1476C30.4126 13.4917 30.6272 13.7063 30.6272 13.9713V17.3285C30.6272 17.5935 30.4126 17.8081 30.1476 17.8081H26.1468V21.8026C26.1468 22.0676 25.9322 22.2822 25.6672 22.2822ZM22.7896 21.3293H25.1939V17.3348C25.1939 17.0697 25.4084 16.8552 25.6735 16.8552H29.6743V14.4509H25.6735C25.4084 14.4509 25.1939 14.2363 25.1939 13.9713V9.97677H22.7896V13.9713C22.7896 14.2363 22.575 14.4509 22.31 14.4509H18.3092V16.8552H22.31C22.575 16.8552 22.7896 17.0697 22.7896 17.3348V21.3293Z" fill="#FF2A23"/>
</svg>
