<svg width="50" height="50" viewBox="0 0 50 50" fill="none" xmlns="http://www.w3.org/2000/svg">
<circle cx="21.7105" cy="21.7105" r="21.2105" stroke="#FF2A23"/>
<circle cx="28.2895" cy="28.2896" r="21.2105" fill="white" stroke="#FF2A23"/>
<path d="M18.748 31.5393C18.748 28.5393 20.0317 26.3584 21.9155 24.2217L28.1704 16.9143L28.5576 17.2307C28.5576 17.2307 28.5576 17.2307 28.5576 17.2307C28.7027 17.0532 28.8022 17.0375 28.8286 17.0373C28.8476 17.0372 28.9354 17.0435 29.0662 17.2162C29.9725 18.4129 31.0634 19.5001 32.1695 20.5517C32.4225 20.7923 32.6759 21.0306 32.9283 21.268C33.7884 22.077 34.6374 22.8756 35.4242 23.7176C37.4477 25.8833 38.9736 28.2493 38.9736 31.4962C38.9736 37.113 34.5051 41.6953 28.9041 41.6953C23.2952 41.6953 18.748 37.1485 18.748 31.5393Z" stroke="#FF2A23"/>
<path d="M30.2632 23.0264C32.0176 24.5615 35.5263 28.0264 35.5263 29.6053" stroke="#FF2A23"/>
</svg>
