<svg width="200" height="45" viewBox="0 0 200 45" fill="none" xmlns="http://www.w3.org/2000/svg">
<path d="M61.7366 18.1537C61.7366 28.9577 52.4139 33.7899 44.8329 43.0687C44.143 43.9128 43.2857 43.9373 42.6278 43.0687C36.6297 35.1489 25.5767 29.9128 25.5767 18.227C25.5767 8.20132 33.5572 0 43.5829 0C53.6086 0 61.7366 8.12731 61.7366 18.1537Z" fill="#FF2A23"/>
<path d="M22.4898 18.8147C22.4898 14.841 23.7441 11.1546 25.8821 8.15118C23.4588 5.87021 21.0254 3.61371 19.1088 1.0825C18.4509 0.213893 17.5936 0.238353 16.9037 1.0825C9.32204 10.3613 0 15.1935 0 25.9975C0 36.0232 8.12731 44.1512 18.1537 44.1512C24.2057 44.1512 29.5121 41.1622 32.7676 36.5877C27.6074 31.731 22.4898 26.7658 22.4898 18.8147Z" fill="#FF2A23"/>
<path d="M195.72 16.1138C196.999 16.1138 198.029 16.4977 198.81 17.2655C199.603 18.0333 200 19.1721 200 20.682V26.5938H197.006V21.1427C197.006 20.3237 196.826 19.7159 196.468 19.3193C196.11 18.9098 195.592 18.705 194.913 18.705C194.158 18.705 193.557 18.9418 193.109 19.4152C192.661 19.8759 192.437 20.5669 192.437 21.4882V26.5938H189.443V12.3518H192.437V17.3423C192.834 16.9456 193.314 16.6449 193.877 16.4401C194.44 16.2226 195.054 16.1138 195.72 16.1138Z" fill="#FF2A23"/>
<path d="M183.168 26.7473C182.068 26.7473 181.076 26.5234 180.193 26.0755C179.323 25.6148 178.639 24.9814 178.14 24.1753C177.653 23.3691 177.41 22.4542 177.41 21.4305C177.41 20.4068 177.653 19.4919 178.14 18.6858C178.639 17.8796 179.323 17.2526 180.193 16.8048C181.076 16.3441 182.068 16.1138 183.168 16.1138C184.256 16.1138 185.203 16.3441 186.009 16.8048C186.828 17.2526 187.423 17.8988 187.794 18.7434L185.472 19.991C184.934 19.0441 184.16 18.5706 183.149 18.5706C182.369 18.5706 181.722 18.8265 181.211 19.3384C180.699 19.8502 180.443 20.5476 180.443 21.4305C180.443 22.3135 180.699 23.0108 181.211 23.5227C181.722 24.0345 182.369 24.2904 183.149 24.2904C184.173 24.2904 184.947 23.817 185.472 22.8701L187.794 24.1369C187.423 24.9558 186.828 25.5956 186.009 26.0563C185.203 26.517 184.256 26.7473 183.168 26.7473Z" fill="#FF2A23"/>
<path d="M172.94 17.6301C173.299 17.1311 173.778 16.7536 174.38 16.4977C174.994 16.2417 175.698 16.1138 176.491 16.1138V18.8777C176.158 18.8521 175.935 18.8393 175.819 18.8393C174.962 18.8393 174.29 19.0825 173.804 19.5687C173.318 20.0422 173.075 20.7587 173.075 21.7184V26.5937H170.08V16.2673H172.94V17.6301Z" fill="#FF2A23"/>
<path d="M167.308 16.2673V26.5937H164.448V25.4037C163.706 26.2994 162.631 26.7473 161.224 26.7473C160.251 26.7473 159.368 26.5298 158.575 26.0947C157.794 25.6596 157.18 25.039 156.732 24.2329C156.284 23.4267 156.061 22.4926 156.061 21.4305C156.061 20.3685 156.284 19.4343 156.732 18.6282C157.18 17.822 157.794 17.2014 158.575 16.7664C159.368 16.3313 160.251 16.1138 161.224 16.1138C162.542 16.1138 163.572 16.5296 164.314 17.3614V16.2673H167.308ZM161.742 24.2904C162.497 24.2904 163.124 24.0345 163.623 23.5227C164.122 22.998 164.372 22.3007 164.372 21.4305C164.372 20.5604 164.122 19.8694 163.623 19.3576C163.124 18.8329 162.497 18.5706 161.742 18.5706C160.974 18.5706 160.341 18.8329 159.842 19.3576C159.343 19.8694 159.093 20.5604 159.093 21.4305C159.093 22.3007 159.343 22.998 159.842 23.5227C160.341 24.0345 160.974 24.2904 161.742 24.2904Z" fill="#FF2A23"/>
<path d="M149.921 24.348C150.458 24.348 150.932 24.2713 151.341 24.1177C151.764 23.9514 152.154 23.6954 152.512 23.3499L154.105 25.0774C153.133 26.1907 151.712 26.7473 149.844 26.7473C148.68 26.7473 147.65 26.5234 146.754 26.0755C145.858 25.6148 145.167 24.9814 144.681 24.1753C144.195 23.3691 143.952 22.4542 143.952 21.4305C143.952 20.4196 144.188 19.5111 144.662 18.705C145.148 17.886 145.807 17.2526 146.639 16.8048C147.483 16.3441 148.43 16.1138 149.48 16.1138C150.465 16.1138 151.361 16.3249 152.167 16.7472C152.973 17.1566 153.613 17.7581 154.086 18.5514C154.572 19.332 154.816 20.2597 154.816 21.3346L147.176 22.8125C147.394 23.3243 147.733 23.7082 148.194 23.9641C148.667 24.2201 149.243 24.348 149.921 24.348ZM149.48 18.3787C148.725 18.3787 148.11 18.6218 147.637 19.108C147.163 19.5943 146.914 20.2661 146.888 21.1234L151.917 20.1445C151.776 19.6071 151.489 19.1784 151.053 18.8585C150.618 18.5386 150.094 18.3787 149.48 18.3787Z" fill="#FF2A23"/>
<path d="M137.105 26.8242C136.043 26.8242 135.013 26.6835 134.015 26.402C133.03 26.1077 132.236 25.7302 131.635 25.2695L132.691 22.9278C133.267 23.3501 133.951 23.6892 134.744 23.9451C135.538 24.2011 136.331 24.329 137.125 24.329C138.007 24.329 138.66 24.2011 139.082 23.9451C139.505 23.6764 139.716 23.3245 139.716 22.8895C139.716 22.5696 139.588 22.3072 139.332 22.1025C139.089 21.885 138.769 21.7122 138.372 21.5843C137.988 21.4563 137.464 21.3155 136.798 21.162C135.775 20.9189 134.936 20.6757 134.284 20.4326C133.631 20.1895 133.068 19.7992 132.595 19.2618C132.134 18.7243 131.904 18.0078 131.904 17.112C131.904 16.3315 132.115 15.6277 132.537 15.0007C132.959 14.3609 133.593 13.8554 134.437 13.4844C135.295 13.1133 136.338 12.9277 137.566 12.9277C138.423 12.9277 139.261 13.0301 140.08 13.2348C140.899 13.4396 141.616 13.7339 142.23 14.1178L141.27 16.4786C140.029 15.7749 138.788 15.423 137.547 15.423C136.677 15.423 136.03 15.5637 135.608 15.8452C135.199 16.1267 134.994 16.4978 134.994 16.9585C134.994 17.4191 135.231 17.7646 135.704 17.995C136.19 18.2125 136.926 18.43 137.911 18.6476C138.935 18.8907 139.773 19.1338 140.426 19.3769C141.078 19.6201 141.635 20.004 142.096 20.5286C142.569 21.0532 142.806 21.7634 142.806 22.6591C142.806 23.4269 142.588 24.1307 142.153 24.7705C141.731 25.3975 141.091 25.8965 140.234 26.2676C139.377 26.6387 138.334 26.8242 137.105 26.8242Z" fill="#FF2A23"/>
<path d="M127.223 17.6301C127.581 17.1311 128.061 16.7536 128.663 16.4977C129.277 16.2417 129.981 16.1138 130.774 16.1138V18.8777C130.441 18.8521 130.217 18.8393 130.102 18.8393C129.245 18.8393 128.573 19.0825 128.087 19.5687C127.601 20.0422 127.358 20.7587 127.358 21.7184V26.5937H124.363V16.2673H127.223V17.6301Z" fill="#FF2A23"/>
<path d="M116.7 26.7473C115.612 26.7473 114.633 26.5234 113.763 26.0755C112.905 25.6148 112.234 24.9814 111.747 24.1753C111.261 23.3691 111.018 22.4542 111.018 21.4305C111.018 20.4068 111.261 19.4919 111.747 18.6858C112.234 17.8796 112.905 17.2526 113.763 16.8048C114.633 16.3441 115.612 16.1138 116.7 16.1138C117.787 16.1138 118.76 16.3441 119.617 16.8048C120.474 17.2526 121.146 17.8796 121.632 18.6858C122.119 19.4919 122.362 20.4068 122.362 21.4305C122.362 22.4542 122.119 23.3691 121.632 24.1753C121.146 24.9814 120.474 25.6148 119.617 26.0755C118.76 26.5234 117.787 26.7473 116.7 26.7473ZM116.7 24.2904C117.467 24.2904 118.094 24.0345 118.581 23.5227C119.08 22.998 119.329 22.3007 119.329 21.4305C119.329 20.5604 119.08 19.8694 118.581 19.3576C118.094 18.8329 117.467 18.5706 116.7 18.5706C115.932 18.5706 115.298 18.8329 114.799 19.3576C114.3 19.8694 114.051 20.5604 114.051 21.4305C114.051 22.3007 114.3 22.998 114.799 23.5227C115.298 24.0345 115.932 24.2904 116.7 24.2904Z" fill="#FF2A23"/>
<path d="M104.679 16.1138C105.959 16.1138 106.989 16.4977 107.769 17.2654C108.563 18.0332 108.959 19.172 108.959 20.682V26.5937H105.965V21.1426C105.965 20.3237 105.786 19.7159 105.428 19.3192C105.069 18.9097 104.551 18.705 103.873 18.705C103.118 18.705 102.517 18.9417 102.069 19.4152C101.621 19.8758 101.397 20.5668 101.397 21.4881V26.5937H98.4026V16.2673H101.263V17.4765C101.659 17.0415 102.152 16.7088 102.74 16.4785C103.329 16.2353 103.975 16.1138 104.679 16.1138Z" fill="#FF2A23"/>
<path d="M90.7388 26.7473C89.6512 26.7473 88.6723 26.5234 87.8021 26.0755C86.9448 25.6148 86.273 24.9814 85.7867 24.1753C85.3005 23.3691 85.0574 22.4542 85.0574 21.4305C85.0574 20.4068 85.3005 19.4919 85.7867 18.6858C86.273 17.8796 86.9448 17.2526 87.8021 16.8048C88.6723 16.3441 89.6512 16.1138 90.7388 16.1138C91.8265 16.1138 92.799 16.3441 93.6563 16.8048C94.5137 17.2526 95.1854 17.8796 95.6717 18.6858C96.1579 19.4919 96.4011 20.4068 96.4011 21.4305C96.4011 22.4542 96.1579 23.3691 95.6717 24.1753C95.1854 24.9814 94.5137 25.6148 93.6563 26.0755C92.799 26.5234 91.8265 26.7473 90.7388 26.7473ZM90.7388 24.2904C91.5066 24.2904 92.1336 24.0345 92.6198 23.5227C93.1189 22.998 93.3684 22.3007 93.3684 21.4305C93.3684 20.5604 93.1189 19.8694 92.6198 19.3576C92.1336 18.8329 91.5066 18.5706 90.7388 18.5706C89.9711 18.5706 89.3377 18.8329 88.8386 19.3576C88.3396 19.8694 88.09 20.5604 88.09 21.4305C88.09 22.3007 88.3396 22.998 88.8386 23.5227C89.3377 24.0345 89.9711 24.2904 90.7388 24.2904Z" fill="#FF2A23"/>
<path d="M70.1787 13.158H76.2824C77.7412 13.158 79.0272 13.4395 80.1404 14.0025C81.2665 14.5527 82.1366 15.3333 82.7508 16.3442C83.3778 17.3551 83.6913 18.5323 83.6913 19.8759C83.6913 21.2195 83.3778 22.3967 82.7508 23.4076C82.1366 24.4185 81.2665 25.2054 80.1404 25.7685C79.0272 26.3187 77.7412 26.5938 76.2824 26.5938H70.1787V13.158ZM76.1289 24.041C77.4725 24.041 78.5409 23.6699 79.3343 22.9277C80.1404 22.1728 80.5435 21.1555 80.5435 19.8759C80.5435 18.5963 80.1404 17.5854 79.3343 16.8432C78.5409 16.0883 77.4725 15.7108 76.1289 15.7108H73.2882V24.041H76.1289Z" fill="#FF2A23"/>
<path d="M195.562 31.8625H196.462V33.8472C196.462 34.5865 196.441 35.0632 196.398 35.7345L196.43 35.7442C196.752 35.1703 196.923 34.8395 197.277 34.2947L198.896 31.8625H200V36.5712H199.099V34.5768C199.099 33.8083 199.121 33.4094 199.164 32.6408H199.142C198.799 33.2537 198.585 33.6331 198.274 34.1098C197.781 34.8395 197.202 35.7442 196.655 36.5712H195.562V31.8625Z" fill="#FF2A23"/>
<path d="M190.202 36.5712V31.921C190.577 31.8626 191.252 31.814 191.853 31.814C192.732 31.814 194.168 31.9502 194.168 32.9911C194.168 33.5748 193.675 33.9445 193.086 34.0613V34.0807C193.847 34.178 194.404 34.5574 194.404 35.2384C194.404 36.4739 192.689 36.6296 191.671 36.6296C191.092 36.6296 190.481 36.5907 190.202 36.5712ZM191.113 32.4463V33.8472H191.821C192.517 33.8472 193.236 33.6624 193.236 33.0981C193.236 32.6312 192.785 32.4074 191.842 32.4074C191.52 32.4074 191.328 32.4269 191.113 32.4463ZM191.102 34.4018V36.0167C191.37 36.0362 191.563 36.0459 191.853 36.0459C192.496 36.0459 193.439 35.9194 193.439 35.2287C193.439 34.5477 192.678 34.4018 191.788 34.4018H191.102Z" fill="#FF2A23"/>
<path d="M186.548 31.7654C188.038 31.7654 189.046 32.748 189.046 34.1781C189.046 35.9195 187.706 36.6783 186.462 36.6783C185.069 36.6783 183.975 35.7444 183.975 34.2559C183.975 32.6896 185.122 31.7654 186.548 31.7654ZM186.527 32.4075C185.423 32.4075 184.94 33.3414 184.94 34.2267C184.94 35.2579 185.583 36.0362 186.505 36.0362C187.406 36.0362 188.081 35.2677 188.081 34.2072C188.081 33.4095 187.642 32.4075 186.527 32.4075Z" fill="#FF2A23"/>
<path d="M178.247 38.4975V33.3998C178.247 32.7966 178.226 32.3102 178.204 31.8627H179.041L179.094 32.6701H179.116C179.491 32.0962 180.113 31.7654 180.959 31.7654C182.224 31.7654 183.168 32.7285 183.168 34.1489C183.168 35.8416 182.021 36.6783 180.799 36.6783C180.113 36.6783 179.512 36.4059 179.201 35.9389H179.18V38.4975H178.247ZM179.18 33.8376V34.6548C179.18 34.7812 179.191 34.898 179.223 35.005C179.394 35.5984 179.962 36.007 180.638 36.007C181.635 36.007 182.214 35.2677 182.214 34.1878C182.214 33.2538 181.667 32.4464 180.67 32.4464C180.027 32.4464 179.416 32.855 179.244 33.4971C179.212 33.6041 179.18 33.7305 179.18 33.8376Z" fill="#FF2A23"/>
<path d="M173.117 31.8625H174.05V33.9055H174.275L176.216 31.8625H177.363L175.111 33.9834C175.948 34.0709 176.451 34.5768 176.859 35.4232C176.998 35.7345 177.17 36.1918 177.405 36.5712H176.419C176.28 36.3669 176.108 35.9972 175.937 35.608C175.583 34.8492 175.101 34.499 174.232 34.499H174.05V36.5712H173.117V31.8625Z" fill="#FF2A23"/>
<path d="M165.454 36.5712V31.921C165.829 31.8626 166.504 31.814 167.105 31.814C167.984 31.814 169.42 31.9502 169.42 32.9911C169.42 33.5748 168.927 33.9445 168.337 34.0613V34.0807C169.098 34.178 169.656 34.5574 169.656 35.2384C169.656 36.4739 167.941 36.6296 166.922 36.6296C166.343 36.6296 165.732 36.5907 165.454 36.5712ZM166.365 32.4463V33.8472H167.072C167.769 33.8472 168.487 33.6624 168.487 33.0981C168.487 32.6312 168.037 32.4074 167.094 32.4074C166.772 32.4074 166.579 32.4269 166.365 32.4463ZM166.354 34.4018V36.0167C166.622 36.0362 166.815 36.0459 167.105 36.0459C167.748 36.0459 168.691 35.9194 168.691 35.2287C168.691 34.5477 167.93 34.4018 167.04 34.4018H166.354Z" fill="#FF2A23"/>
<path d="M161.8 31.7654C163.29 31.7654 164.298 32.748 164.298 34.1781C164.298 35.9195 162.958 36.6783 161.714 36.6783C160.32 36.6783 159.227 35.7444 159.227 34.2559C159.227 32.6896 160.374 31.7654 161.8 31.7654ZM161.778 32.4075C160.674 32.4075 160.192 33.3414 160.192 34.2267C160.192 35.2579 160.835 36.0362 161.757 36.0362C162.657 36.0362 163.333 35.2677 163.333 34.2072C163.333 33.4095 162.893 32.4075 161.778 32.4075Z" fill="#FF2A23"/>
<path d="M153.499 38.4975V33.3998C153.499 32.7966 153.477 32.3102 153.456 31.8627H154.292L154.346 32.6701H154.367C154.742 32.0962 155.364 31.7654 156.211 31.7654C157.476 31.7654 158.419 32.7285 158.419 34.1489C158.419 35.8416 157.272 36.6783 156.05 36.6783C155.364 36.6783 154.764 36.4059 154.453 35.9389H154.432V38.4975H153.499ZM154.432 33.8376V34.6548C154.432 34.7812 154.442 34.898 154.474 35.005C154.646 35.5984 155.214 36.007 155.89 36.007C156.886 36.007 157.465 35.2677 157.465 34.1878C157.465 33.2538 156.919 32.4464 155.922 32.4464C155.278 32.4464 154.667 32.855 154.496 33.4971C154.464 33.6041 154.432 33.7305 154.432 33.8376Z" fill="#FF2A23"/>
<path d="M149.813 31.7654C151.303 31.7654 152.311 32.748 152.311 34.1781C152.311 35.9195 150.971 36.6783 149.727 36.6783C148.334 36.6783 147.24 35.7444 147.24 34.2559C147.24 32.6896 148.387 31.7654 149.813 31.7654ZM149.792 32.4075C148.687 32.4075 148.205 33.3414 148.205 34.2267C148.205 35.2579 148.848 36.0362 149.77 36.0362C150.671 36.0362 151.346 35.2677 151.346 34.2072C151.346 33.4095 150.906 32.4075 149.792 32.4075Z" fill="#FF2A23"/>
<path d="M141.731 31.8625H142.675V33.7596H145.129V31.8625H146.073V36.5712H145.129V34.4406H142.675V36.5712H141.731V31.8625Z" fill="#FF2A23"/>
<path d="M138.077 31.7654C139.568 31.7654 140.575 32.748 140.575 34.1781C140.575 35.9195 139.235 36.6783 137.992 36.6783C136.598 36.6783 135.505 35.7444 135.505 34.2559C135.505 32.6896 136.652 31.7654 138.077 31.7654ZM138.056 32.4075C136.952 32.4075 136.469 33.3414 136.469 34.2267C136.469 35.2579 137.113 36.0362 138.035 36.0362C138.935 36.0362 139.61 35.2677 139.61 34.2072C139.61 33.4095 139.171 32.4075 138.056 32.4075Z" fill="#FF2A23"/>
<path d="M130.795 31.8625H134.257V35.9291L134.793 35.9388L134.74 38.0596H134L133.957 36.5712H130.366L130.312 38.0596H129.583L129.54 35.9485L129.98 35.9291C130.205 35.6275 130.376 35.3065 130.494 34.966C130.698 34.3822 130.795 33.7499 130.795 33.0883V31.8625ZM131.62 32.5144V33.2829C131.62 33.9153 131.534 34.5184 131.352 35.0438C131.245 35.3648 131.105 35.6567 130.945 35.9194H133.335V32.5144H131.62Z" fill="#FF2A23"/>
<path d="M124.28 31.7654C125.77 31.7654 126.777 32.748 126.777 34.1781C126.777 35.9195 125.437 36.6783 124.194 36.6783C122.8 36.6783 121.707 35.7444 121.707 34.2559C121.707 32.6896 122.854 31.7654 124.28 31.7654ZM124.258 32.4075C123.154 32.4075 122.672 33.3414 122.672 34.2267C122.672 35.2579 123.315 36.0362 124.237 36.0362C125.137 36.0362 125.813 35.2677 125.813 34.2072C125.813 33.4095 125.373 32.4075 124.258 32.4075Z" fill="#FF2A23"/>
<path d="M116.69 36.5712V31.921C117.065 31.8626 117.74 31.814 118.341 31.814C119.22 31.814 120.656 31.9502 120.656 32.9911C120.656 33.5748 120.163 33.9445 119.573 34.0613V34.0807C120.335 34.178 120.892 34.5574 120.892 35.2384C120.892 36.4739 119.177 36.6296 118.158 36.6296C117.579 36.6296 116.968 36.5907 116.69 36.5712ZM117.601 32.4463V33.8472H118.308C119.005 33.8472 119.723 33.6624 119.723 33.0981C119.723 32.6312 119.273 32.4074 118.33 32.4074C118.008 32.4074 117.815 32.4269 117.601 32.4463ZM117.59 34.4018V36.0167C117.858 36.0362 118.051 36.0459 118.341 36.0459C118.984 36.0459 119.927 35.9194 119.927 35.2287C119.927 34.5477 119.166 34.4018 118.276 34.4018H117.59Z" fill="#FF2A23"/>
<path d="M111.712 31.8625H115.893V32.5338H114.274V36.5712H113.331V32.5338H111.712V31.8625Z" fill="#FF2A23"/>
<path d="M110.953 35.7638L111.114 36.4059C110.867 36.5129 110.32 36.6783 109.624 36.6783C108.058 36.6783 107.04 35.7152 107.04 34.2753C107.04 32.8258 108.133 31.7654 109.827 31.7654C110.385 31.7654 110.878 31.8919 111.135 32.0183L110.921 32.6701C110.696 32.5631 110.342 32.4464 109.827 32.4464C108.637 32.4464 107.994 33.2538 107.994 34.2267C107.994 35.3163 108.766 35.9876 109.795 35.9876C110.331 35.9876 110.685 35.8708 110.953 35.7638Z" fill="#FF2A23"/>
<path d="M106.215 34.3726H102.57C102.591 35.5303 103.395 36.007 104.349 36.007C105.025 36.007 105.443 35.9 105.786 35.7638L105.957 36.3767C105.625 36.5129 105.046 36.6783 104.221 36.6783C102.624 36.6783 101.669 35.7152 101.669 34.2948C101.669 32.8744 102.591 31.7654 104.103 31.7654C105.807 31.7654 106.247 33.1079 106.247 33.9738C106.247 34.1489 106.236 34.2753 106.215 34.3726ZM102.581 33.7597H105.336C105.346 33.2247 105.089 32.3783 104.028 32.3783C103.063 32.3783 102.656 33.1663 102.581 33.7597Z" fill="#FF2A23"/>
<path d="M94.0247 31.8625H94.9573V35.8999H96.769V31.8625H97.7016V35.8999H99.5026V31.8625H100.425V35.9291L100.961 35.9388L100.907 38.0596H100.167L100.135 36.5712H94.0247V31.8625Z" fill="#FF2A23"/>
<path d="M92.3597 29.5569L92.3169 30.2671C92.0596 30.3546 91.5772 30.4325 91.2341 30.4811C90.398 30.5978 89.7762 30.8508 89.3796 31.3664C89.0472 31.7847 88.865 32.4171 88.8114 32.923H88.8436C89.1866 32.2322 89.9156 31.8626 90.6552 31.8626C91.9309 31.8626 92.8636 32.6895 92.8636 34.1877C92.8636 35.7248 91.9845 36.6879 90.4623 36.6879C88.6399 36.6879 88.0396 35.0924 88.0396 33.5261C88.0396 32.456 88.2861 31.5707 88.8436 30.9189C89.3367 30.2573 90.0549 29.9655 91.0733 29.8098C91.5021 29.7417 92.006 29.6639 92.3597 29.5569ZM91.9095 34.246C91.9095 33.4872 91.5772 32.4949 90.4623 32.4949C89.9048 32.4949 89.5082 32.7576 89.2831 33.137C89.1116 33.4191 89.0258 33.7596 89.0258 34.139C89.0258 34.9173 89.4546 36.0458 90.4837 36.0458C91.5343 36.0458 91.9095 35.1216 91.9095 34.246Z" fill="#FF2A23"/>
<path d="M84.7073 31.7654C86.1974 31.7654 87.2051 32.748 87.2051 34.1781C87.2051 35.9195 85.8651 36.6783 84.6216 36.6783C83.228 36.6783 82.1345 35.7444 82.1345 34.2559C82.1345 32.6896 83.2816 31.7654 84.7073 31.7654ZM84.6859 32.4075C83.5817 32.4075 83.0993 33.3414 83.0993 34.2267C83.0993 35.2579 83.7425 36.0362 84.6645 36.0362C85.5649 36.0362 86.2403 35.2677 86.2403 34.2072C86.2403 33.4095 85.8008 32.4075 84.6859 32.4075Z" fill="#FF2A23"/>
<path d="M78.824 31.7654C80.3141 31.7654 81.3218 32.748 81.3218 34.1781C81.3218 35.9195 79.9818 36.6783 78.7383 36.6783C77.3447 36.6783 76.2512 35.7444 76.2512 34.2559C76.2512 32.6896 77.3983 31.7654 78.824 31.7654ZM78.8026 32.4075C77.6984 32.4075 77.216 33.3414 77.216 34.2267C77.216 35.2579 77.8592 36.0362 78.7812 36.0362C79.6816 36.0362 80.357 35.2677 80.357 34.2072C80.357 33.4095 79.9175 32.4075 78.8026 32.4075Z" fill="#FF2A23"/>
<path d="M75.4637 35.6857L75.6459 36.3667C75.3136 36.5224 74.6168 36.6781 73.7378 36.6781C71.701 36.6781 70.1787 35.5106 70.1787 33.3509C70.1787 31.2884 71.7117 29.907 73.9522 29.907C74.8419 29.907 75.4208 30.0821 75.6674 30.1988L75.4315 30.8896C75.0885 30.7339 74.5847 30.6172 73.9843 30.6172C72.2906 30.6172 71.165 31.5998 71.165 33.3217C71.165 34.9366 72.1834 35.9581 73.9307 35.9581C74.5096 35.9581 75.0885 35.8511 75.4637 35.6857Z" fill="#FF2A23"/>
</svg>
