<svg width="53" height="49" viewBox="0 0 53 49" fill="none" xmlns="http://www.w3.org/2000/svg">
<path d="M48.8632 3.62256L48.9606 3.99653H49.3471H49.5035C51.0676 3.99653 52.408 5.33691 52.408 6.90104V44.9028V44.9147L52.4086 44.9266C52.4859 46.551 51.1735 47.8073 49.5955 47.8073H3.40451C1.84038 47.8073 0.5 46.4669 0.5 44.9028V6.90104C0.5 5.33691 1.84038 3.99653 3.40451 3.99653H3.54254H3.93813L4.02913 3.61154C4.45462 1.81137 6.04864 0.5 8.00521 0.5C9.96137 0.5 11.5568 1.81126 11.991 3.61363L12.0832 3.99653H12.4771H12.7439H13.1395L13.2305 3.61154C13.656 1.81137 15.25 0.5 17.2066 0.5C19.1628 0.5 20.7582 1.81126 21.1924 3.61363L21.2846 3.99653H21.6785H21.9453H22.3409L22.4319 3.61154C22.8574 1.81137 24.4514 0.5 26.408 0.5C28.3642 0.5 29.9596 1.81126 30.3938 3.61363L30.486 3.99653H30.8799H31.2571H31.6436L31.741 3.62256C32.1995 1.86202 33.7692 0.592014 35.7014 0.592014C37.6336 0.592014 39.2033 1.86202 39.6618 3.62256L39.7592 3.99653H40.1457H40.4585H40.845L40.9424 3.62256C41.4009 1.86202 42.9706 0.592014 44.9028 0.592014C46.8349 0.592014 48.4046 1.86202 48.8632 3.62256ZM46.9271 3.99653H47.7642L47.3673 3.25948C46.8951 2.38252 45.9731 1.80035 44.9028 1.80035C43.8325 1.80035 42.9105 2.38252 42.4382 3.25948L42.0414 3.99653H42.8785H46.9271ZM37.7257 3.99653H38.5628L38.1659 3.25948C37.6937 2.38252 36.7717 1.80035 35.7014 1.80035C34.6311 1.80035 33.7091 2.38252 33.2369 3.25948L32.84 3.99653H33.6771H37.7257ZM28.5243 3.99653H29.3614L28.9645 3.25948C28.4923 2.38252 27.5703 1.80035 26.5 1.80035C25.4297 1.80035 24.5077 2.38252 24.0355 3.25948L23.6386 3.99653H24.4757H28.5243ZM19.3229 3.99653H20.16L19.7632 3.25948C19.2909 2.38252 18.3689 1.80035 17.2986 1.80035C16.2283 1.80035 15.3063 2.38252 14.8341 3.25948L14.4372 3.99653H15.2743H19.3229ZM10.1215 3.99653H10.9586L10.5618 3.25948C10.0896 2.38252 9.16755 1.80035 8.09722 1.80035C7.0269 1.80035 6.10489 2.38252 5.63268 3.25948L5.23581 3.99653H6.07292H10.1215ZM50.6077 16.5104H51.1077V16.0104V13.8941V13.3941H50.6077H2.30035H1.80035V13.8941V16.0104V16.5104H2.30035H40.3021C40.67 16.5104 40.9983 16.8386 40.9983 17.2066C40.9983 17.6414 40.6959 17.9028 40.3021 17.9028H2.30035H1.80035V18.4028V44.9028C1.80035 45.823 2.48428 46.507 3.40451 46.507H49.5035C50.4237 46.507 51.1077 45.823 51.1077 44.9028V18.4028V17.9028H50.6077H44.9028C44.5348 17.9028 44.2066 17.5746 44.2066 17.2066C44.2066 16.8386 44.5348 16.5104 44.9028 16.5104H50.6077ZM50.6077 12.0017H51.1077V11.5017V6.90104C51.1077 5.9808 50.4237 5.29688 49.5035 5.29688H49.3747H48.9808L48.8886 5.67977C48.4544 7.48214 46.8589 8.79341 44.9028 8.79341C44.5348 8.79341 44.2066 8.46518 44.2066 8.09722C44.2066 7.72927 44.5348 7.40104 44.9028 7.40104C45.9287 7.40104 46.817 6.86394 47.3012 6.05325L47.7529 5.29688H46.8719H40.1733H39.7794L39.6872 5.67977C39.253 7.48214 37.6576 8.79341 35.7014 8.79341C35.3334 8.79341 35.0052 8.46518 35.0052 8.09722C35.0052 7.72927 35.3334 7.40104 35.7014 7.40104C36.7273 7.40104 37.6156 6.86394 38.0998 6.05325L38.5515 5.29688H37.6705H30.8615H30.4685L30.3756 5.67876C29.9381 7.47841 28.4138 8.79341 26.5 8.79341C26.1321 8.79341 25.8038 8.46518 25.8038 8.09722C25.8038 7.72927 26.132 7.40104 26.5 7.40104C27.5259 7.40104 28.4142 6.86394 28.8984 6.05325L29.3501 5.29688H28.4691H21.6601H21.2671L21.1742 5.67876C20.7367 7.47841 19.2124 8.79341 17.2986 8.79341C16.9307 8.79341 16.6024 8.46518 16.6024 8.09722C16.6024 7.72927 16.9307 7.40104 17.2986 7.40104C18.3245 7.40104 19.2128 6.86394 19.697 6.05325L20.1487 5.29688H19.2677H12.4587H12.0657L11.9728 5.67876C11.5353 7.47841 10.011 8.79341 8.09722 8.79341C7.72927 8.79341 7.40104 8.46518 7.40104 8.09722C7.40104 7.72927 7.72927 7.40104 8.09722 7.40104C9.12311 7.40104 10.0114 6.86394 10.4956 6.05325L10.9473 5.29688H10.0663H3.40451C2.48428 5.29688 1.80035 5.9808 1.80035 6.90104V11.5017V12.0017H2.30035H50.6077Z" stroke="#FF2A23"/>
<mask id="path-2-inside-1_45_1800" fill="white">
<path d="M53.0001 12.6984C53.0001 12.8548 52.9633 13.0112 52.9081 13.1584V12.2383C52.9633 12.3855 53.0001 12.5419 53.0001 12.6984Z"/>
</mask>
<path d="M52.9081 13.1584H51.9081L53.8444 13.5095L52.9081 13.1584ZM52.9081 12.2383L53.8444 11.8872L51.9081 12.2383H52.9081ZM52.0001 12.6984C52.0001 12.6983 52.0001 12.7006 51.9996 12.7055C51.999 12.7104 51.9979 12.7177 51.9959 12.7273C51.9918 12.747 51.9844 12.7737 51.9718 12.8073L53.8444 13.5095C53.9281 13.2863 54.0001 13.0081 54.0001 12.6984H52.0001ZM53.9081 13.1584V12.2383H51.9081V13.1584H53.9081ZM51.9718 12.5894C51.9844 12.623 51.9918 12.6497 51.9959 12.6694C51.9979 12.679 51.999 12.6863 51.9996 12.6912C52.0001 12.6961 52.0001 12.6984 52.0001 12.6984H54.0001C54.0001 12.3886 53.9281 12.1104 53.8444 11.8872L51.9718 12.5894Z" fill="#FF2A23" mask="url(#path-2-inside-1_45_1800)"/>
<path d="M10.3975 29.4042H5.79677C5.42881 29.4042 5.10059 29.076 5.10059 28.708V24.1073C5.10059 23.7394 5.42881 23.4111 5.79677 23.4111H10.3975C10.7654 23.4111 11.0936 23.7394 11.0936 24.1073V28.708C11.0936 29.1429 10.7912 29.4042 10.3975 29.4042Z" stroke="#FF2A23"/>
<path d="M19.5988 29.4042H14.9981C14.6301 29.4042 14.3019 29.076 14.3019 28.708V24.1073C14.3019 23.7394 14.6301 23.4111 14.9981 23.4111H19.5988C19.9667 23.4111 20.2949 23.7394 20.2949 24.1073V28.708C20.2949 29.1428 19.9925 29.4042 19.5988 29.4042Z" stroke="#FF2A23"/>
<path d="M28.8003 29.4042H24.1996C23.8316 29.4042 23.5034 29.076 23.5034 28.708V24.1073C23.5034 23.7394 23.8316 23.4111 24.1996 23.4111H28.8003C29.1682 23.4111 29.4965 23.7394 29.4965 24.1073V28.708C29.4965 29.1429 29.1941 29.4042 28.8003 29.4042Z" stroke="#FF2A23"/>
<path d="M10.3975 38.6063H5.79677C5.42881 38.6063 5.10059 38.2781 5.10059 37.9102V33.3095C5.10059 32.9415 5.42881 32.6133 5.79677 32.6133H10.3975C10.7654 32.6133 11.0936 32.9415 11.0936 33.3095V37.9102C11.0936 38.345 10.7912 38.6063 10.3975 38.6063Z" stroke="#FF2A23"/>
<path d="M19.5988 38.6063H14.9981C14.6301 38.6063 14.3019 38.2781 14.3019 37.9102V33.3095C14.3019 32.9415 14.6301 32.6133 14.9981 32.6133H19.5988C19.9667 32.6133 20.2949 32.9415 20.2949 33.3095V37.9102C20.2949 38.345 19.9925 38.6063 19.5988 38.6063Z" stroke="#FF2A23"/>
<path d="M28.8003 38.6063H24.1996C23.8316 38.6063 23.5034 38.2781 23.5034 37.9102V33.3095C23.5034 32.9415 23.8316 32.6133 24.1996 32.6133H28.8003C29.1682 32.6133 29.4965 32.9415 29.4965 33.3095V37.9102C29.4965 38.345 29.1941 38.6063 28.8003 38.6063Z" stroke="#FF2A23"/>
<mask id="path-10-inside-2_45_1800" fill="white">
<path d="M53.0001 17.2062C53.0001 17.3902 52.9633 17.5558 52.9081 17.703V16.7461C52.9633 16.8933 53.0001 17.0497 53.0001 17.2062Z"/>
</mask>
<path d="M52.9081 17.703H51.9081L53.8444 18.0542L52.9081 17.703ZM52.9081 16.7461L53.8444 16.395L51.9081 16.7461H52.9081ZM52.0001 17.2062C52.0001 17.2537 51.9911 17.3003 51.9718 17.3519L53.8444 18.0542C53.9355 17.8113 54.0001 17.5267 54.0001 17.2062H52.0001ZM53.9081 17.703V16.7461H51.9081V17.703H53.9081ZM51.9718 17.0972C51.9844 17.1308 51.9918 17.1575 51.9959 17.1772C51.9979 17.1868 51.999 17.1941 51.9996 17.199C52.0001 17.2039 52.0001 17.2062 52.0001 17.2062H54.0001C54.0001 16.8964 53.9281 16.6182 53.8444 16.395L51.9718 17.0972Z" fill="#FF2A23" mask="url(#path-10-inside-2_45_1800)"/>
</svg>
