<!-- icon666.com - MILLIONS vector ICONS FREE --><svg id="Logout" enable-background="new 0 0 64 64" viewBox="0 0 64 64" xmlns="http://www.w3.org/2000/svg"><g><path d="m46.1 0h-40c-2 0-3.6 1.6-3.6 3.6v56.8c0 2 1.6 3.6 3.6 3.6h40c2 0 3.6-1.6 3.6-3.6v-56.8c0-2-1.6-3.6-3.6-3.6zm0 60.4h-40v-56.8h40z" fill="#d4d9dd"/><path d="m39.8 15.7 21 14.8c1 .7 1 2.2 0 3l-21 14.8c-1.2.8-2.9 0-2.9-1.5v-6.9h-21.6c-1 0-1.8-.8-1.8-1.8v-12.2c0-1 .8-1.8 1.8-1.8h21.7v-6.9c-.1-1.5 1.6-2.3 2.8-1.5z" fill="#f74354"/></g></svg>