<svg width="62" height="45" viewBox="0 0 62 45" fill="none" xmlns="http://www.w3.org/2000/svg">
<path d="M61.7366 18.1537C61.7366 28.9577 52.4139 33.7899 44.8329 43.0687C44.143 43.9128 43.2857 43.9373 42.6278 43.0687C36.6297 35.1489 25.5767 29.9128 25.5767 18.227C25.5767 8.20132 33.5572 0 43.5829 0C53.6086 0 61.7366 8.12731 61.7366 18.1537Z" fill="#FF2A23"/>
<path d="M22.4898 18.8147C22.4898 14.841 23.7441 11.1546 25.8821 8.15118C23.4588 5.87021 21.0254 3.61371 19.1088 1.0825C18.4509 0.213893 17.5936 0.238353 16.9037 1.0825C9.32204 10.3613 0 15.1935 0 25.9975C0 36.0232 8.12731 44.1512 18.1537 44.1512C24.2057 44.1512 29.5121 41.1622 32.7676 36.5877C27.6074 31.731 22.4898 26.7658 22.4898 18.8147Z" fill="#FF2A23"/>
</svg>
