<svg width="56" height="53" viewBox="0 0 56 53" fill="none" xmlns="http://www.w3.org/2000/svg">
<path d="M53.2857 47.1475H2.71429C1.76751 47.1475 1 48.2464 1 49.602C1 50.9576 1.76751 52.0566 2.71429 52.0566H53.2857C54.2325 52.0566 55 50.9576 55 49.602C55 48.2464 54.2325 47.1475 53.2857 47.1475Z" stroke="#FF2A23" stroke-miterlimit="10"/>
<path d="M12.4545 37.3291H5.90906V47.1473H12.4545V37.3291Z" stroke="#FF2A23" stroke-miterlimit="10"/>
<path d="M24.7273 27.5117H18.1819V47.1481H24.7273V27.5117Z" stroke="#FF2A23" stroke-miterlimit="10"/>
<path d="M37.8182 19.3291H30.4546V47.1473H37.8182V19.3291Z" stroke="#FF2A23" stroke-miterlimit="10"/>
<path d="M50.091 11.9658H43.5455V47.1476H50.091V11.9658Z" stroke="#FF2A23" stroke-miterlimit="10"/>
<path d="M54.069 1H46.6207V5.65517H54.069L52.6725 3.32759L54.069 1Z" fill="#FF2A23"/>
<path d="M46.6207 12V5.65517M46.6207 5.65517V1H54.069L52.6725 3.32759L54.069 5.65517H46.6207Z" stroke="#FF2A23"/>
</svg>
