<svg width="84" height="84" viewBox="0 0 84 84" fill="none" xmlns="http://www.w3.org/2000/svg">
<g clip-path="url(#clip0_67_735)">
<path d="M83.999 42C83.999 55.309 77.8087 67.1721 68.1496 74.8669C60.9752 80.5843 51.8857 84 41.999 84C32.1123 84 23.0228 80.5843 15.8484 74.8669C6.18938 67.1721 -0.000976562 55.309 -0.000976562 42C-0.000976562 18.8043 18.8033 0 41.999 0C65.1947 0 83.999 18.8043 83.999 42Z" fill="#FFC8C8"/>
<path d="M41.999 50.2697C51.7495 50.2697 59.6539 42.3653 59.6539 32.6148C59.6539 22.8643 51.7495 14.96 41.999 14.96C32.2485 14.96 24.3441 22.8643 24.3441 32.6148C24.3441 42.3653 32.2485 50.2697 41.999 50.2697Z" fill="#FF2A23"/>
<path d="M68.1495 74.867C60.9752 80.5844 51.8857 84.0002 41.999 84.0002C32.1122 84.0002 23.0228 80.5844 15.8484 74.867C19.2446 63.6441 29.6675 55.4736 41.999 55.4736C54.3304 55.4736 64.7533 63.6441 68.1495 74.867Z" fill="#FF2A23"/>
</g>
<defs>
<clipPath id="clip0_67_735">
<rect width="84" height="84" fill="white" transform="translate(-0.000976562)"/>
</clipPath>
</defs>
</svg>
